<?xml version="1.0" encoding="UTF-8" standalone="no"?>
<svg
   version="1.1"
   viewBox="0 0 1000 1000"
   xmlns="http://www.w3.org/2000/svg">
  <style>
    path {
      stroke-width: 60;
      fill: black;
      stroke: black;
    }

    @media (prefers-color-scheme: dark) {
      path {
        fill: white;
        stroke: white;
      }
    }
  </style>
  <path
     transform="scale(0.92) translate(20 60)"
     d="m 468.20995,1129.5541 -131.6957,-5.4656 C 378.67964,958.9885 448.57909,722.57906 510.91209,558.88099 392.9857,605.60663 295.15299,651.58951 185.60421,701.76547 L 145.77407,607.21871 C 251.40133,562.45126 410.35298,487.40095 555.13396,432.32415 461.78166,331.0162 273.7662,187.4702 171.41898,109.58102 L 224.67529,26.313037 C 360.32432,126.85165 489.70164,224.60662 587.19398,307.30095 654.67072,121.50223 715.20482,-24.813362 789.35289,-184.2407 l 125.91922,7.19372 C 825.92708,38.951324 720.27622,312.53214 645.88155,524.94926 577.19221,721.0761 516.13612,949.29323 468.20995,1129.5541 Z"
     />
</svg>
