<svg xmlns="http://www.w3.org/2000/svg" version="1.1" viewBox="-70 130 700 700" width="48" height="48">
    <style>
        path {fill:rgb(86, 176, 255);}
        @media (prefers-color-scheme: dark) {
        path {fill:rgb(86, 176, 255);}
        }
    </style>
   <path
d="M487 810q-1 -9 -5 -17.5t-11.5 -19t-20.5 -25.5l-364 -415q-25 -28 -29.5 -54.5t-4.5 -36.5q0 -29 8 -48t17 -41h24v4q0 15 8 36t36 53l357 407q14 15 21 29.5t10 27.5t3 26q0 32 -11.5 47.5t-23.5 26.5h-14zM52 800v-46h9q23 0 30.5 -8.5t2.5 -27.5l-17 -73
q-11 -49 -9 -88.5t27 -79.5l58 -94l27 30l-31 58q-18 34 -20 63t15 67l38 84q13 28 13.5 57t-13.5 58h-130zM398 539l-43 -45q0 -11 4.5 -26t11.5 -31t13 -28l59 -109l40 12l-55 103q-11 22 -18 43t-9.5 41t-2.5 40zM541 332l-129 -21q-25 -4 -37.5 -15.5t-12.5 -48.5
q0 -17 5.5 -41t18.5 -53h27v6q0 23 11 34t31 14l55 9q20 3 29.5 16t9.5 38q0 10 -1.5 22.5t-6.5 39.5z" />
</svg>
