<?xml version="1.0" encoding="UTF-8" standalone="no"?>
<svg
   version="1.1"
   viewBox="0 0 1000 1000"
   xmlns="http://www.w3.org/2000/svg">
  <rect
     fill="hsl(0, 0%, 8%)"
     width="100%"
     height="100%"
     id="rect1025" />
  <path
     style="fill:#298ff4;stroke:#298ff4;stroke-width:60"
     d="M 517.54183,973.97841 390.63222,973.5798 C 430.88215,832.1752 475.4925,677.34369 516.33155,549.98307 398.40516,596.70871 293.30394,636.40379 183.75516,686.57975 L 145.77407,607.21871 C 251.40133,562.45126 410.35298,487.40095 555.13396,432.32415 461.78166,331.0162 273.7662,187.4702 171.41898,109.58102 L 228.02606,40.226897 C 363.67509,140.76551 496.44404,238.22933 593.93638,320.92366 627.98717,226.98503 685.6251,81.302812 723.54299,-26.305102 L 830.99212,4.640251 C 775.08326,150.67084 694.69749,377.24976 645.88155,524.94926 597.0656,672.64877 553.42363,824.60992 517.54183,973.97841 Z"
     />
</svg>
